<svg xmlns="http://www.w3.org/2000/svg" width="503.227" height="512.002" viewBox="0 0 503.227 512.002">
  <g id="laptop" transform="translate(-4.387 0.001)">
    <path id="Path_76" data-name="Path 76" d="M498.685,171.94,203.006,1.228c-2.488-1.437-4.743-1.57-6.372-.624l-4.155,2.415.016-.008c-1.616.931-2.621,2.92-2.629,5.754L189.3,208.237c-.016,5.636,3.916,12.49,8.805,15.387-4.965-2.7-12.747-2.654-17.571.149L8.07,324c-2.448,1.423-3.67,3.286-3.668,5.152,0-.006,0-.013,0-.018l-.014,4.8c-.005,1.884,1.238,3.771,3.728,5.208l295.68,170.71c4.948,2.857,12.941,2.857,17.854,0L494.115,409.632c2.442-1.419,3.664-3.276,3.67-5.136l.014-4.8c0,.054-.005.108-.007.162.076-1.872-1.083-3.761-3.474-5.22,2.4,1.259,4.551,1.294,6.1.311-.046.029-.09.061-.137.088l4.155-2.415c1.607-.934,2.6-2.921,2.612-5.743l.565-199.472C507.629,181.719,503.634,174.8,498.685,171.94Z" fill="#77767e"/>
    <g id="Group_120" data-name="Group 120">
      <path id="Path_77" data-name="Path 77" d="M192.48,3.019,196.635.6c1.628-.947,3.883-.813,6.372.624l-4.155,2.415C196.363,2.206,194.108,2.073,192.48,3.019Z" fill="#acabb1"/>
      <path id="Path_78" data-name="Path 78" d="M504.436,392.619l-4.155,2.415c1.607-.934,2.6-2.921,2.612-5.743l4.155-2.415C507.04,389.7,506.043,391.685,504.436,392.619Z" fill="#57565c"/>
      <path id="Path_79" data-name="Path 79" d="M503.459,189.819l4.155-2.415-.566,199.472-4.154,2.415Z" fill="#77767e"/>
      <path id="Path_80" data-name="Path 80" d="M198.85,3.643l4.156-2.415L498.685,171.94l-4.155,2.413Z" fill="#c6c5cb"/>
      <path id="Path_81" data-name="Path 81" d="M494.53,174.353l4.155-2.415c4.948,2.857,8.944,9.779,8.929,15.464l-4.155,2.415C503.475,184.133,499.478,177.21,494.53,174.353Z" fill="#acabb1"/>
      <path id="Path_82" data-name="Path 82" d="M494.53,174.353c4.948,2.857,8.944,9.779,8.929,15.464l-.565,199.472c-.016,5.683-4.039,7.975-8.987,5.118L198.227,223.7c-4.946-2.856-8.942-9.777-8.926-15.46l.565-199.472c.017-5.685,4.039-7.978,8.984-5.123Z" fill="#898890"/>
    </g>
    <g id="Group_121" data-name="Group 121">
      <path id="Path_83" data-name="Path 83" d="M4.389,333.938l.014-4.8c-.005,1.884,1.238,3.771,3.728,5.208l-.014,4.8C5.627,337.71,4.383,335.822,4.389,333.938Z" fill="#c6c5cb"/>
      <path id="Path_84" data-name="Path 84" d="M497.8,399.693l-.014,4.8c-.005,1.86-1.228,3.717-3.67,5.136l.014-4.8C496.572,403.409,497.8,401.552,497.8,399.693Z" fill="#57565c"/>
      <path id="Path_85" data-name="Path 85" d="M494.13,404.829l-.013,4.8L321.651,509.86l.014-4.806Z" fill="#77767e"/>
      <path id="Path_86" data-name="Path 86" d="M303.81,505.053l-.013,4.8L8.117,339.147l.013-4.8Z" fill="#898890"/>
      <path id="Path_87" data-name="Path 87" d="M321.665,505.054l-.014,4.8c-4.913,2.856-12.907,2.856-17.854,0l.014-4.8C308.758,507.909,316.751,507.909,321.665,505.054Z" fill="#57565c"/>
      <path id="Path_88" data-name="Path 88" d="M494.072,394.485c4.948,2.857,4.974,7.487.059,10.343L321.665,505.054c-4.913,2.856-12.907,2.856-17.854,0L8.13,334.342c-4.948-2.857-4.974-7.487-.061-10.342L180.534,223.774c4.916-2.857,12.909-2.857,17.857,0Z" fill="#acabb1"/>
    </g>
    <g id="Group_122" data-name="Group 122">
      <path id="Path_89" data-name="Path 89" d="M485.429,193.5,207.662,33.133l-.485,171.085L484.945,364.586l.484-171.084" fill="#2e2e30"/>
      <path id="Path_90" data-name="Path 90" d="M279.751,411.16l-53.322-30.785-18.758,10.9,53.322,30.785,18.758-10.9" fill="#2e2e30"/>
      <path id="Path_91" data-name="Path 91" d="M203.823,260.274l-25.268-14.588-18.758,10.9,25.267,14.588,18.759-10.9" fill="#2e2e30"/>
      <path id="Path_92" data-name="Path 92" d="M231.878,276.472,206.61,261.884l-18.758,10.9,25.267,14.588,18.759-10.9" fill="#2e2e30"/>
      <path id="Path_93" data-name="Path 93" d="M259.934,292.67l-25.27-14.589-18.758,10.9,25.27,14.589,18.758-10.9" fill="#2e2e30"/>
      <path id="Path_94" data-name="Path 94" d="M287.989,308.868,262.722,294.28l-18.759,10.9,25.268,14.588,18.758-10.9" fill="#2e2e30"/>
      <path id="Path_95" data-name="Path 95" d="M316.043,325.065l-25.267-14.588-18.759,10.9,25.268,14.588,18.758-10.9" fill="#2e2e30"/>
      <path id="Path_96" data-name="Path 96" d="M344.1,341.263l-25.267-14.588-18.758,10.9,25.267,14.588,18.758-10.9" fill="#2e2e30"/>
      <path id="Path_97" data-name="Path 97" d="M372.154,357.461l-25.267-14.588-18.758,10.9L353.4,368.362l18.758-10.9" fill="#2e2e30"/>
      <path id="Path_98" data-name="Path 98" d="M400.212,373.659l-25.27-14.589-18.758,10.9,25.269,14.589,18.759-10.9" fill="#2e2e30"/>
      <path id="Path_99" data-name="Path 99" d="M428.266,389.857,403,375.269l-18.759,10.9,25.267,14.588,18.759-10.9" fill="#2e2e30"/>
      <path id="Path_100" data-name="Path 100" d="M456.323,406.055l-25.269-14.589-18.759,10.9,25.27,14.589,18.758-10.9" fill="#2e2e30"/>
      <path id="Path_101" data-name="Path 101" d="M176,276.443l-25.267-14.588-18.756,10.9,25.267,14.586L176,276.443" fill="#2e2e30"/>
      <path id="Path_102" data-name="Path 102" d="M204.055,292.64l-25.267-14.588-18.756,10.9L185.3,303.54l18.756-10.9" fill="#2e2e30"/>
      <path id="Path_103" data-name="Path 103" d="M232.112,308.839,206.843,294.25l-18.756,10.9,25.269,14.589,18.756-10.9" fill="#2e2e30"/>
      <path id="Path_104" data-name="Path 104" d="M260.166,325.036,234.9,310.448l-18.756,10.9,25.267,14.587,18.756-10.9" fill="#2e2e30"/>
      <path id="Path_105" data-name="Path 105" d="M288.221,341.234l-25.267-14.588-18.756,10.9,25.267,14.588,18.756-10.9" fill="#2e2e30"/>
      <path id="Path_106" data-name="Path 106" d="M316.278,357.432,291.01,342.844l-18.755,10.9,25.267,14.587,18.756-10.9" fill="#2e2e30"/>
      <path id="Path_107" data-name="Path 107" d="M344.333,373.63l-25.268-14.588-18.756,10.9,25.268,14.588,18.756-10.9" fill="#2e2e30"/>
      <path id="Path_108" data-name="Path 108" d="M372.389,389.828l-25.27-14.589-18.756,10.9,25.27,14.59,18.756-10.9" fill="#2e2e30"/>
      <path id="Path_109" data-name="Path 109" d="M400.444,406.025l-25.267-14.588-18.756,10.9,25.267,14.587,18.756-10.9" fill="#2e2e30"/>
      <path id="Path_110" data-name="Path 110" d="M428.5,422.224l-25.269-14.589-18.755,10.9,25.268,14.589,18.756-10.9" fill="#2e2e30"/>
      <path id="Path_111" data-name="Path 111" d="M154.473,288.954l-25.267-14.588-18.756,10.9,25.267,14.588,18.756-10.9" fill="#2e2e30"/>
      <path id="Path_112" data-name="Path 112" d="M182.527,305.151,157.26,290.563l-18.756,10.9,25.267,14.588,18.756-10.9" fill="#2e2e30"/>
      <path id="Path_113" data-name="Path 113" d="M210.584,321.35l-25.269-14.589-18.756,10.9,25.269,14.59,18.756-10.9" fill="#2e2e30"/>
      <path id="Path_114" data-name="Path 114" d="M238.638,337.547l-25.267-14.588-18.756,10.9,25.267,14.588,18.756-10.9" fill="#2e2e30"/>
      <path id="Path_115" data-name="Path 115" d="M266.693,353.745l-25.267-14.588-18.756,10.9,25.267,14.588,18.756-10.9" fill="#2e2e30"/>
      <path id="Path_116" data-name="Path 116" d="M294.75,369.943l-25.267-14.588-18.755,10.9,25.266,14.588,18.756-10.9" fill="#2e2e30"/>
      <path id="Path_117" data-name="Path 117" d="M350.861,402.339l-25.27-14.589-18.756,10.9,25.27,14.59,18.756-10.9" fill="#2e2e30"/>
      <path id="Path_118" data-name="Path 118" d="M378.916,418.537l-25.267-14.588-18.756,10.9,25.267,14.588,18.756-10.9" fill="#2e2e30"/>
      <path id="Path_119" data-name="Path 119" d="M406.972,434.735,381.7,420.146l-18.756,10.9,25.269,14.59,18.756-10.9" fill="#2e2e30"/>
      <path id="Path_120" data-name="Path 120" d="M132.947,301.463,107.68,286.875l-18.758,10.9,25.267,14.587,18.758-10.9" fill="#2e2e30"/>
      <path id="Path_121" data-name="Path 121" d="M161,317.66l-25.267-14.588-18.758,10.9,25.267,14.587L161,317.66" fill="#2e2e30"/>
      <path id="Path_122" data-name="Path 122" d="M189.059,333.859l-25.27-14.59-18.758,10.9,25.269,14.59,18.759-10.9" fill="#2e2e30"/>
      <path id="Path_123" data-name="Path 123" d="M217.113,350.056l-25.267-14.588-18.759,10.9,25.267,14.587,18.759-10.9" fill="#2e2e30"/>
      <path id="Path_124" data-name="Path 124" d="M245.168,366.253,219.9,351.665l-18.759,10.9,25.267,14.587,18.759-10.9" fill="#2e2e30"/>
      <path id="Path_125" data-name="Path 125" d="M273.224,382.452l-25.266-14.588-18.758,10.9,25.266,14.587,18.758-10.9" fill="#2e2e30"/>
      <path id="Path_126" data-name="Path 126" d="M167.531,346.37l-25.27-14.589-18.758,10.9,25.27,14.59,18.758-10.9" fill="#2e2e30"/>
      <path id="Path_127" data-name="Path 127" d="M195.585,362.567l-25.267-14.588-18.759,10.9,25.267,14.588,18.759-10.9" fill="#2e2e30"/>
      <path id="Path_128" data-name="Path 128" d="M223.64,378.764l-25.267-14.588-18.759,10.9,25.268,14.588,18.758-10.9" fill="#2e2e30"/>
      <path id="Path_129" data-name="Path 129" d="M335.863,443.556,310.6,428.968l-18.759,10.9L317.1,454.457l18.759-10.9" fill="#2e2e30"/>
      <path id="Path_130" data-name="Path 130" d="M89.892,326.484,64.624,311.9,45.869,322.8l25.267,14.588,18.756-10.9" fill="#2e2e30"/>
      <path id="Path_131" data-name="Path 131" d="M117.946,342.681,92.678,328.093l-18.756,10.9L99.19,353.582l18.756-10.9" fill="#2e2e30"/>
      <path id="Path_132" data-name="Path 132" d="M258.223,423.67l-25.267-14.587-18.756,10.9,25.267,14.588,18.756-10.9" fill="#2e2e30"/>
      <path id="Path_133" data-name="Path 133" d="M230.168,407.473,120.733,344.291l-18.755,10.9,109.434,63.183,18.756-10.9" fill="#2e2e30"/>
      <path id="Path_134" data-name="Path 134" d="M286.28,439.869,261.01,425.28l-18.756,10.9,25.27,14.59,18.756-10.9" fill="#2e2e30"/>
      <path id="Path_135" data-name="Path 135" d="M314.335,456.066l-25.267-14.588-18.756,10.9,25.267,14.588,18.756-10.9" fill="#2e2e30"/>
      <path id="Path_136" data-name="Path 136" d="M342.391,472.265l-25.269-14.589-18.755,10.9,25.268,14.589,18.756-10.9" fill="#2e2e30"/>
      <path id="Path_137" data-name="Path 137" d="M322.8,386.141l-25.267-14.588-40.284,23.41,25.267,14.587L322.8,386.141" fill="#2e2e30"/>
      <path id="Path_138" data-name="Path 138" d="M139.474,330.171,86.152,299.386l-18.758,10.9,53.321,30.785,18.759-10.9" fill="#2e2e30"/>
    </g>
  </g>
</svg>
