<svg xmlns="http://www.w3.org/2000/svg" width="358.192" height="376.767" viewBox="0 0 358.192 376.767">
  <g id="smartphone" transform="translate(-87.91 192.994) rotate(-40)">
    <path id="Path_139" data-name="Path 139" d="M285.087,0H129.917a15.159,15.159,0,0,0-15.158,15.158V321.036a15.159,15.159,0,0,0,15.158,15.158H285.093a15.158,15.158,0,0,0,15.152-15.158V15.158A15.159,15.159,0,0,0,285.087,0Z" transform="translate(0)" fill="#2c353f"/>
    <rect id="Rectangle_28" data-name="Rectangle 28" width="185.486" height="243.451" transform="translate(114.759 34.779)" fill="#659ed8"/>
    <g id="Group_123" data-name="Group 123" transform="translate(172.723 11.592)">
      <path id="Path_140" data-name="Path 140" d="M266.8,29.247H208.831a5.8,5.8,0,0,1,0-11.593H266.8a5.8,5.8,0,0,1,0,11.593Z" transform="translate(-203.034 -17.654)" fill="#c4ced3"/>
      <path id="Path_141" data-name="Path 141" d="M355.868,29.247h-5.8a5.8,5.8,0,1,1,0-11.593h5.8a5.8,5.8,0,0,1,0,11.593Z" transform="translate(-251.532 -17.654)" fill="#c4ced3"/>
      <path id="Path_142" data-name="Path 142" d="M254.1,473.392H239.707a10.191,10.191,0,0,1-10.19-10.2v-2.8a10.191,10.191,0,0,1,10.2-10.19h14.393a10.191,10.191,0,0,1,10.19,10.2v2.8A10.191,10.191,0,0,1,254.1,473.392Z" transform="translate(-212.127 -166.18)" fill="#c4ced3"/>
    </g>
  </g>
</svg>
