<svg xmlns="http://www.w3.org/2000/svg" width="20.8" height="23.263" viewBox="0 0 20.8 23.263">
  <path id="file" d="M8.519,22.354a.907.907,0,0,1-.906.909H3.625A3.634,3.634,0,0,1,0,19.628V3.635A3.634,3.634,0,0,1,3.625,0H14.768a3.634,3.634,0,0,1,3.625,3.635v8.678a.906.906,0,1,1-1.813,0V3.635a1.817,1.817,0,0,0-1.813-1.817H3.625A1.817,1.817,0,0,0,1.813,3.635V19.628a1.817,1.817,0,0,0,1.813,1.817H7.613A.907.907,0,0,1,8.519,22.354Zm5.342-16.9H4.527a.909.909,0,0,0,0,1.817h9.335a.909.909,0,0,0,0-1.817ZM14.768,10a.908.908,0,0,0-.906-.909H4.527a.909.909,0,0,0,0,1.817h9.335A.908.908,0,0,0,14.768,10ZM4.527,12.722a.909.909,0,0,0,0,1.817H9.29a.909.909,0,0,0,0-1.817Zm16.108,6.656c-.032.046-.141.2-.209.286a12.773,12.773,0,0,1-2,2.07,6.206,6.206,0,0,1-3.877,1.529,6.206,6.206,0,0,1-3.877-1.529,12.769,12.769,0,0,1-2-2.07c-.068-.086-.177-.241-.209-.286a.911.911,0,0,1,0-1.045c.032-.045.141-.2.209-.286a12.77,12.77,0,0,1,2-2.07,6.206,6.206,0,0,1,3.877-1.529,6.206,6.206,0,0,1,3.877,1.529,12.769,12.769,0,0,1,2,2.07c.068.086.177.241.209.286A.91.91,0,0,1,20.635,19.378Zm-1.89-.522c-1.441-1.719-2.852-2.59-4.2-2.59s-2.757.871-4.2,2.59c1.441,1.719,2.852,2.59,4.2,2.59S17.3,20.575,18.744,18.856Zm-4.153-1.727a1.727,1.727,0,1,0,1.722,1.727A1.724,1.724,0,0,0,14.592,17.129Zm0,0" fill="#3578fc"/>
</svg>
